<?xml version="1.0" encoding="utf-8"?>
<!-- Generator: Adobe Illustrator 19.2.1, SVG Export Plug-In . SVG Version: 6.00 Build 0)  -->
<svg version="1.1" id="Capa_1" xmlns="http://www.w3.org/2000/svg" xmlns:xlink="http://www.w3.org/1999/xlink" x="0px" y="0px"
	 viewBox="0 0 49 37" style="enable-background:new 0 0 49 37;" xml:space="preserve">
<style type="text/css">
	.st0{fill:#A6A6A6;}
</style>
<g>
	<g>
		<path class="st0" d="M48.3,0.2H0.7c-0.3,0-0.5,0.2-0.5,0.5v29.7c0,0.3,0.2,0.5,0.5,0.5h13.4v5.5c0,0.2,0.1,0.3,0.3,0.4
			c0.1,0,0.2,0.1,0.2,0.1c0.1,0,0.2,0,0.3-0.1l9.8-5.9h23.6c0.3,0,0.5-0.2,0.5-0.5V0.7C48.8,0.4,48.6,0.2,48.3,0.2z M47.8,29.9H24.5
			c-0.1,0-0.2,0-0.3,0.1L15,35.5v-5.1c0-0.3-0.2-0.5-0.5-0.5H1.2V1.2h46.6V29.9z"/>
		<path class="st0" d="M8.6,9.1h31.7c0.3,0,0.5-0.2,0.5-0.5s-0.2-0.5-0.5-0.5H8.6c-0.3,0-0.5,0.2-0.5,0.5C8.1,8.9,8.4,9.1,8.6,9.1z"
			/>
		<path class="st0" d="M8.6,15h31.7c0.3,0,0.5-0.2,0.5-0.5S40.6,14,40.3,14H8.6c-0.3,0-0.5,0.2-0.5,0.5S8.4,15,8.6,15z"/>
		<path class="st0" d="M8.6,21h15.9c0.3,0,0.5-0.2,0.5-0.5S24.8,20,24.5,20H8.6c-0.3,0-0.5,0.2-0.5,0.5S8.4,21,8.6,21z"/>
	</g>
</g>
</svg>
