<?xml version="1.0" encoding="utf-8"?>
<!-- Generator: Adobe Illustrator 19.2.1, SVG Export Plug-In . SVG Version: 6.00 Build 0)  -->
<svg version="1.1" id="Capa_1" xmlns="http://www.w3.org/2000/svg" xmlns:xlink="http://www.w3.org/1999/xlink" x="0px" y="0px"
	 viewBox="0 0 70 56.2" style="enable-background:new 0 0 70 56.2;" xml:space="preserve">
<style type="text/css">
	.st0{fill:#5F5F5F;}
</style>
<g>
	<rect x="53.9" y="47.3" class="st0" width="2.2" height="2.2"/>
	<path class="st0" d="M66.6,17.6H59V3.9c0-1.6-1.3-3-3-3H3.9c-1.6,0-3,1.3-3,3v36.9c0,1.6,1.3,3,3,3l19.5,0v5.8h-2.9v2.2h9.4v2
		c0,0.9,0.8,1.7,1.7,1.7h11.8c0.9,0,1.7-0.8,1.7-1.7v-0.5h21.4c1.4,0,2.5-1.1,2.5-2.5V20.1C69.1,18.7,68,17.6,66.6,17.6z M3.9,42.6
		v-1.1c-0.4,0-0.8-0.4-0.8-0.8V3.9c0-0.4,0.4-0.8,0.8-0.8H56c0.4,0,0.8,0.4,0.8,0.8v13.7H43.3c-1.4,0-2.5,1.1-2.5,2.5v9.1l-9.2,0
		c-0.5,0-0.9,0.2-1.2,0.5c-0.3,0.3-0.5,0.8-0.5,1.2l0.1,10.6l-26,0.1L3.9,42.6z M25.6,49.5v-5.8l4.4,0v5.8L25.6,49.5L25.6,49.5z
		 M43,53.1H32.1v-9.5h0l0-0.6V31.3h8.7h1.1l1.1,0V53.1L43,53.1z M66.9,50.6c0,0.2-0.2,0.4-0.4,0.4H45.2V30.9c0-0.9-0.8-1.7-1.7-1.7
		H43v-9.1c0-0.2,0.2-0.4,0.4-0.4H59h7.6c0.2,0,0.4,0.2,0.4,0.4V50.6z"/>
	<rect x="36.5" y="49.5" class="st0" width="2.2" height="2.2"/>
</g>
</svg>
